<svg width="907" height="252" viewBox="0 0 907 252" fill="none" xmlns="http://www.w3.org/2000/svg">
<path d="M47.9114 161.142C53.6598 187.769 77.6189 215.839 136.578 200.351L159.681 242L178.227 171.717" stroke="#FB8500" stroke-width="20" stroke-linecap="round" stroke-linejoin="round"/>
<path d="M10.3295 139.83C16.0237 110.87 34.7332 79.7963 64.0178 42.5399C112.988 39.1233 174.654 52.5232 186.525 65.8048C209.79 91.8355 0.598665 189.318 10.3295 139.83Z" stroke="white" stroke-width="20" stroke-linecap="round" stroke-linejoin="round"/>
<path d="M304.758 171.414C305.799 171.74 306.841 171.967 307.883 172.098C308.924 172.163 309.966 172.195 311.008 172.195C313.612 172.195 316.118 171.837 318.527 171.121C320.936 170.405 323.182 169.396 325.266 168.094C327.414 166.727 329.302 165.099 330.93 163.211C332.622 161.258 333.99 159.109 335.031 156.766L354.562 176.395C352.089 179.91 349.224 183.068 345.969 185.867C342.779 188.667 339.296 191.043 335.52 192.996C331.809 194.949 327.87 196.414 323.703 197.391C319.602 198.432 315.37 198.953 311.008 198.953C303.651 198.953 296.717 197.586 290.207 194.852C283.762 192.117 278.098 188.309 273.215 183.426C268.397 178.543 264.589 172.749 261.789 166.043C258.99 159.272 257.59 151.85 257.59 143.777C257.59 135.509 258.99 127.957 261.789 121.121C264.589 114.285 268.397 108.458 273.215 103.641C278.098 98.8229 283.762 95.0794 290.207 92.4102C296.717 89.7409 303.651 88.4062 311.008 88.4062C315.37 88.4062 319.634 88.9271 323.801 89.9688C327.967 91.0104 331.906 92.5078 335.617 94.4609C339.393 96.4141 342.909 98.8229 346.164 101.688C349.419 104.487 352.284 107.645 354.758 111.16L304.758 171.414ZM318.43 116.434C317.193 115.978 315.956 115.685 314.719 115.555C313.547 115.424 312.31 115.359 311.008 115.359C307.362 115.359 303.911 116.043 300.656 117.41C297.466 118.712 294.667 120.6 292.258 123.074C289.914 125.548 288.059 128.543 286.691 132.059C285.324 135.509 284.641 139.415 284.641 143.777C284.641 144.754 284.673 145.861 284.738 147.098C284.868 148.335 285.031 149.604 285.227 150.906C285.487 152.143 285.78 153.348 286.105 154.52C286.431 155.691 286.854 156.733 287.375 157.645L318.43 116.434Z" fill="#FB8500"/>
<path d="M469.113 197H371.066V56.9609H399.094V168.973H469.113V197ZM511.789 197H483.762V56.9609H511.789V197ZM565.891 197H537.863V56.9609H565.891V126.98L618.039 56.9609H649.875L605.637 116.043L649.875 197H618.039L587.277 140.359L565.891 168.973V197ZM745.285 141.043V113.016C745.285 109.174 744.536 105.561 743.039 102.176C741.607 98.7253 739.621 95.7305 737.082 93.1914C734.543 90.6523 731.548 88.6667 728.098 87.2344C724.712 85.737 721.099 84.9883 717.258 84.9883C713.417 84.9883 709.771 85.737 706.32 87.2344C702.935 88.6667 699.973 90.6523 697.434 93.1914C694.895 95.7305 692.876 98.7253 691.379 102.176C689.947 105.561 689.23 109.174 689.23 113.016V141.043H745.285ZM773.312 197H745.285V168.973H689.23V197H661.301V113.016C661.301 105.268 662.766 98.0091 665.695 91.2383C668.625 84.4023 672.596 78.4453 677.609 73.3672C682.688 68.2891 688.612 64.2852 695.383 61.3555C702.219 58.4258 709.51 56.9609 717.258 56.9609C725.005 56.9609 732.264 58.4258 739.035 61.3555C745.871 64.2852 751.828 68.2891 756.906 73.3672C761.984 78.4453 765.988 84.4023 768.918 91.2383C771.848 98.0091 773.312 105.268 773.312 113.016V197ZM789.426 98.9531C789.426 93.1589 790.533 87.7227 792.746 82.6445C794.96 77.5664 797.954 73.1393 801.73 69.3633C805.572 65.5221 810.031 62.4948 815.109 60.2812C820.188 58.0677 825.624 56.9609 831.418 56.9609H895.676V84.9883H831.418C829.465 84.9883 827.642 85.3464 825.949 86.0625C824.257 86.7786 822.759 87.7878 821.457 89.0898C820.22 90.3268 819.243 91.7917 818.527 93.4844C817.811 95.1771 817.453 97 817.453 98.9531C817.453 100.906 817.811 102.762 818.527 104.52C819.243 106.212 820.22 107.71 821.457 109.012C822.759 110.249 824.257 111.225 825.949 111.941C827.642 112.658 829.465 113.016 831.418 113.016H859.445C865.24 113.016 870.676 114.122 875.754 116.336C880.897 118.484 885.357 121.479 889.133 125.32C892.974 129.096 895.969 133.556 898.117 138.699C900.331 143.777 901.438 149.214 901.438 155.008C901.438 160.802 900.331 166.238 898.117 171.316C895.969 176.395 892.974 180.854 889.133 184.695C885.357 188.471 880.897 191.466 875.754 193.68C870.676 195.893 865.24 197 859.445 197H797.238V168.973H859.445C861.398 168.973 863.221 168.615 864.914 167.898C866.607 167.182 868.072 166.206 869.309 164.969C870.611 163.667 871.62 162.169 872.336 160.477C873.052 158.784 873.41 156.961 873.41 155.008C873.41 153.055 873.052 151.232 872.336 149.539C871.62 147.846 870.611 146.382 869.309 145.145C868.072 143.842 866.607 142.833 864.914 142.117C863.221 141.401 861.398 141.043 859.445 141.043H831.418C825.624 141.043 820.188 139.936 815.109 137.723C810.031 135.509 805.572 132.514 801.73 128.738C797.954 124.897 794.96 120.438 792.746 115.359C790.533 110.216 789.426 104.747 789.426 98.9531Z" fill="white"/>
</svg>
