<svg width="361" height="311" viewBox="0 0 361 311" fill="none" xmlns="http://www.w3.org/2000/svg">
<path d="M115.911 129.142C121.66 155.769 145.619 183.839 204.578 168.351L227.681 210L246.227 139.717" stroke="#FB8500" stroke-width="20" stroke-linecap="round" stroke-linejoin="round"/>
<path d="M78.3295 107.83C84.0237 78.8704 102.733 47.7963 132.018 10.5399C180.988 7.12334 242.654 20.5232 254.525 33.8048C277.79 59.8355 68.5987 157.318 78.3295 107.83Z" stroke="#023047" stroke-width="20" stroke-linecap="round" stroke-linejoin="round"/>
<path d="M70.4219 291.766C70.8385 291.896 71.2552 291.987 71.6719 292.039C72.0885 292.065 72.5052 292.078 72.9219 292.078C73.9635 292.078 74.9661 291.935 75.9297 291.648C76.8932 291.362 77.7917 290.958 78.625 290.438C79.4844 289.891 80.2396 289.24 80.8906 288.484C81.5677 287.703 82.1146 286.844 82.5312 285.906L90.3438 293.758C89.3542 295.164 88.2083 296.427 86.9062 297.547C85.6302 298.667 84.237 299.617 82.7266 300.398C81.2422 301.18 79.6667 301.766 78 302.156C76.3594 302.573 74.6667 302.781 72.9219 302.781C69.9792 302.781 67.2057 302.234 64.6016 301.141C62.0234 300.047 59.7578 298.523 57.8047 296.57C55.8776 294.617 54.3542 292.299 53.2344 289.617C52.1146 286.909 51.5547 283.94 51.5547 280.711C51.5547 277.404 52.1146 274.383 53.2344 271.648C54.3542 268.914 55.8776 266.583 57.8047 264.656C59.7578 262.729 62.0234 261.232 64.6016 260.164C67.2057 259.096 69.9792 258.562 72.9219 258.562C74.6667 258.562 76.3724 258.771 78.0391 259.188C79.7057 259.604 81.2812 260.203 82.7656 260.984C84.276 261.766 85.6823 262.729 86.9844 263.875C88.2865 264.995 89.4323 266.258 90.4219 267.664L70.4219 291.766ZM75.8906 269.773C75.3958 269.591 74.901 269.474 74.4062 269.422C73.9375 269.37 73.4427 269.344 72.9219 269.344C71.4635 269.344 70.0833 269.617 68.7812 270.164C67.5052 270.685 66.3854 271.44 65.4219 272.43C64.4844 273.419 63.7422 274.617 63.1953 276.023C62.6484 277.404 62.375 278.966 62.375 280.711C62.375 281.102 62.388 281.544 62.4141 282.039C62.4661 282.534 62.5312 283.042 62.6094 283.562C62.7135 284.057 62.8307 284.539 62.9609 285.008C63.0911 285.477 63.2604 285.893 63.4688 286.258L75.8906 269.773Z" fill="#FB8500"/>
<path d="M136.164 302H96.9453V245.984H108.156V290.789H136.164V302ZM153.234 302H142.023V245.984H153.234V302ZM174.875 302H163.664V245.984H174.875V273.992L195.734 245.984H208.469L190.773 269.617L208.469 302H195.734L183.43 279.344L174.875 290.789V302ZM246.633 279.617V268.406C246.633 266.87 246.333 265.424 245.734 264.07C245.161 262.69 244.367 261.492 243.352 260.477C242.336 259.461 241.138 258.667 239.758 258.094C238.404 257.495 236.958 257.195 235.422 257.195C233.885 257.195 232.427 257.495 231.047 258.094C229.693 258.667 228.508 259.461 227.492 260.477C226.477 261.492 225.669 262.69 225.07 264.07C224.497 265.424 224.211 266.87 224.211 268.406V279.617H246.633ZM257.844 302H246.633V290.789H224.211V302H213.039V268.406C213.039 265.307 213.625 262.404 214.797 259.695C215.969 256.961 217.557 254.578 219.562 252.547C221.594 250.516 223.964 248.914 226.672 247.742C229.406 246.57 232.323 245.984 235.422 245.984C238.521 245.984 241.424 246.57 244.133 247.742C246.867 248.914 249.25 250.516 251.281 252.547C253.312 254.578 254.914 256.961 256.086 259.695C257.258 262.404 257.844 265.307 257.844 268.406V302ZM264.289 262.781C264.289 260.464 264.732 258.289 265.617 256.258C266.503 254.227 267.701 252.456 269.211 250.945C270.747 249.409 272.531 248.198 274.562 247.312C276.594 246.427 278.768 245.984 281.086 245.984H306.789V257.195H281.086C280.305 257.195 279.576 257.339 278.898 257.625C278.221 257.911 277.622 258.315 277.102 258.836C276.607 259.331 276.216 259.917 275.93 260.594C275.643 261.271 275.5 262 275.5 262.781C275.5 263.562 275.643 264.305 275.93 265.008C276.216 265.685 276.607 266.284 277.102 266.805C277.622 267.299 278.221 267.69 278.898 267.977C279.576 268.263 280.305 268.406 281.086 268.406H292.297C294.615 268.406 296.789 268.849 298.82 269.734C300.878 270.594 302.661 271.792 304.172 273.328C305.708 274.839 306.906 276.622 307.766 278.68C308.651 280.711 309.094 282.885 309.094 285.203C309.094 287.521 308.651 289.695 307.766 291.727C306.906 293.758 305.708 295.542 304.172 297.078C302.661 298.589 300.878 299.786 298.82 300.672C296.789 301.557 294.615 302 292.297 302H267.414V290.789H292.297C293.078 290.789 293.807 290.646 294.484 290.359C295.161 290.073 295.747 289.682 296.242 289.188C296.763 288.667 297.167 288.068 297.453 287.391C297.74 286.714 297.883 285.984 297.883 285.203C297.883 284.422 297.74 283.693 297.453 283.016C297.167 282.339 296.763 281.753 296.242 281.258C295.747 280.737 295.161 280.333 294.484 280.047C293.807 279.76 293.078 279.617 292.297 279.617H281.086C278.768 279.617 276.594 279.174 274.562 278.289C272.531 277.404 270.747 276.206 269.211 274.695C267.701 273.159 266.503 271.375 265.617 269.344C264.732 267.286 264.289 265.099 264.289 262.781Z" fill="#023047"/>
</svg>
