<svg width="1952" height="1065" viewBox="0 0 1952 1065" fill="none" xmlns="http://www.w3.org/2000/svg">
<line x1="1603.86" y1="127.247" x2="1622.07" y2="151.088" stroke="#DAE1EC" stroke-width="10" stroke-linecap="round"/>
<line x1="1704.21" y1="101.679" x2="1702.84" y2="131.647" stroke="#DAE1EC" stroke-width="10" stroke-linecap="round"/>
<line x1="1651.75" y1="104.614" x2="1660.71" y2="133.245" stroke="#DAE1EC" stroke-width="10" stroke-linecap="round"/>
<line x1="1761.31" y1="122.574" x2="1745.14" y2="147.84" stroke="#DAE1EC" stroke-width="10" stroke-linecap="round"/>
<line x1="1804.08" y1="166.62" x2="1777.44" y2="180.415" stroke="#DAE1EC" stroke-width="10" stroke-linecap="round"/>
<line x1="1813.04" y1="216.142" x2="1783.29" y2="219.993" stroke="#DAE1EC" stroke-width="10" stroke-linecap="round"/>
<line x1="1809.54" y1="261.055" x2="1780.27" y2="254.498" stroke="#DAE1EC" stroke-width="10" stroke-linecap="round"/>
<line x1="1786" y1="305.821" x2="1763.93" y2="285.505" stroke="#DAE1EC" stroke-width="10" stroke-linecap="round"/>
<path d="M1740.6 280.246C1767.8 249.006 1764.53 201.632 1733.29 174.433C1702.05 147.233 1654.67 150.509 1627.47 181.748" stroke="#DAE1EC" stroke-width="10"/>
<path d="M1436.35 346.279C1370.85 321.779 1401.85 224.779 1484.35 240.279C1458.85 175.279 1596.85 121.279 1608.85 212.279C1649.85 202.279 1686.35 225.279 1686.35 269.279C1726.35 269.279 1734.85 346.279 1644.35 346.279M1484.35 269.279C1462.85 256.279 1427.05 274.879 1445.85 311.279M1471.85 346.279H1588.35C1620.35 346.279 1620.85 308.279 1580.85 308.279" stroke="#DAE1EC" stroke-width="10" stroke-linecap="round"/>
<line x1="192.984" y1="894" x2="1759.02" y2="894" stroke="#DAE1EC" stroke-width="10"/>
<path d="M505.615 748.566L564.147 710.762L619.74 675.143V889.129H505.615V748.566Z" fill="#E9F1FD"/>
<path fill-rule="evenodd" clip-rule="evenodd" d="M468 740.123L619.784 643V677.951L483.4 764.142L468 740.123Z" fill="#DAE1EC"/>
<rect x="552.735" y="739.293" width="42.7971" height="48.5034" fill="#DAE1EC"/>
<rect x="595.532" y="810.622" width="24.2517" height="78.4614" fill="#DAE1EC"/>
<path d="M733.385 748.566L674.853 710.762L619.26 675.143V889.129H733.385V748.566Z" fill="#DAE1EC"/>
<path fill-rule="evenodd" clip-rule="evenodd" d="M771 740.123L619.216 643V677.951L755.6 764.142L771 740.123Z" fill="#C1C7D1"/>
<rect width="42.7971" height="48.5034" transform="matrix(-1 0 0 1 686.265 739.293)" fill="#C1C7D1"/>
<rect width="24.2517" height="78.4614" transform="matrix(-1 0 0 1 643.468 810.622)" fill="#C1C7D1"/>
<path d="M249.943 533V780.546C213.719 780.546 176.38 756.927 180.281 721.044C185.071 676.985 207.31 685.161 207.31 658.363C207.31 642.011 202.016 624.297 207.31 610.67C217.98 583.208 225.143 594.773 225.143 565.703C225.143 542.993 240.005 533 249.943 533Z" fill="#E9F1FD" stroke="#E9F1FD" stroke-width="10" stroke-linecap="round"/>
<path d="M250.221 533.454V781C286.445 781 323.784 757.381 319.883 721.498C315.093 677.44 292.854 685.615 292.854 658.817C292.854 642.465 298.149 624.751 292.854 611.124C282.184 583.662 275.021 595.227 275.021 566.157C275.021 543.447 260.16 533.454 250.221 533.454Z" fill="#DAE1EC" stroke="#DAE1EC" stroke-width="10" stroke-linecap="round"/>
<path d="M250 781L250.5 888" stroke="#DAE1EC" stroke-width="10" stroke-linecap="round"/>
<path d="M364.412 662V819.184C341.411 819.184 317.702 804.186 320.179 781.402C323.22 753.426 337.341 758.617 337.341 741.601C337.341 731.218 333.979 719.97 337.341 711.318C344.116 693.88 348.665 701.224 348.665 682.765C348.665 668.345 358.101 662 364.412 662Z" fill="#E9F1FD" stroke="#E9F1FD" stroke-width="10" stroke-linecap="round"/>
<path d="M364.588 662.289V819.472C387.589 819.472 411.298 804.475 408.821 781.69C405.78 753.715 391.659 758.906 391.659 741.89C391.659 731.507 395.021 720.259 391.659 711.607C384.884 694.169 380.335 701.512 380.335 683.054C380.335 668.634 370.899 662.289 364.588 662.289Z" fill="#DAE1EC" stroke="#DAE1EC" stroke-width="10" stroke-linecap="round"/>
<path d="M364.448 819.472L364.765 887.414" stroke="#DAE1EC" stroke-width="10" stroke-linecap="round"/>
<path d="M1699.41 666V823.184C1676.41 823.184 1652.7 808.186 1655.18 785.402C1658.22 757.426 1672.34 762.617 1672.34 745.601C1672.34 735.218 1668.98 723.97 1672.34 715.318C1679.12 697.88 1683.66 705.224 1683.66 686.765C1683.66 672.345 1693.1 666 1699.41 666Z" fill="#E9F1FD" stroke="#E9F1FD" stroke-width="10" stroke-linecap="round"/>
<path d="M1699.59 666.289V823.472C1722.59 823.472 1746.3 808.475 1743.82 785.69C1740.78 757.715 1726.66 762.906 1726.66 745.89C1726.66 735.507 1730.02 724.259 1726.66 715.607C1719.88 698.169 1715.34 705.512 1715.34 687.054C1715.34 672.634 1705.9 666.289 1699.59 666.289Z" fill="#DAE1EC" stroke="#DAE1EC" stroke-width="10" stroke-linecap="round"/>
<path d="M1699.45 823.472L1699.77 891.414" stroke="#DAE1EC" stroke-width="10" stroke-linecap="round"/>
<path d="M1494.2 728V841.95C1477.52 841.95 1460.33 831.078 1462.13 814.56C1464.33 794.279 1474.57 798.043 1474.57 785.707C1474.57 778.18 1472.13 770.026 1474.57 763.753C1479.48 751.112 1482.78 756.435 1482.78 743.054C1482.78 732.6 1489.62 728 1494.2 728Z" fill="#E9F1FD" stroke="#E9F1FD" stroke-width="10" stroke-linecap="round"/>
<path d="M1494.32 728.209V842.159C1511 842.159 1528.19 831.287 1526.39 814.769C1524.19 794.488 1513.95 798.252 1513.95 785.916C1513.95 778.389 1516.39 770.235 1513.95 763.962C1509.04 751.32 1505.74 756.644 1505.74 743.263C1505.74 732.809 1498.9 728.209 1494.32 728.209Z" fill="#DAE1EC" stroke="#DAE1EC" stroke-width="10" stroke-linecap="round"/>
<path d="M1494.22 842.16L1494.45 891.414" stroke="#DAE1EC" stroke-width="10" stroke-linecap="round"/>
<path d="M1590.87 542V785.65C1557.79 785.65 1523.69 762.403 1527.26 727.085C1531.63 683.72 1551.94 691.767 1551.94 665.39C1551.94 649.296 1547.11 631.86 1551.94 618.448C1561.68 591.417 1568.23 602.801 1568.23 574.189C1568.23 551.835 1581.8 542 1590.87 542Z" fill="#E9F1FD" stroke="#E9F1FD" stroke-width="10" stroke-linecap="round"/>
<path d="M1591.13 542.447V786.098C1624.21 786.098 1658.31 762.85 1654.74 727.532C1650.37 684.167 1630.06 692.214 1630.06 665.837C1630.06 649.743 1634.89 632.307 1630.06 618.895C1620.32 591.865 1613.77 603.248 1613.77 574.636C1613.77 552.283 1600.2 542.447 1591.13 542.447Z" fill="#DAE1EC" stroke="#DAE1EC" stroke-width="10" stroke-linecap="round"/>
<path d="M1590.92 786.098L1591.38 891.414" stroke="#DAE1EC" stroke-width="10" stroke-linecap="round"/>
<path d="M1247.82 795.44C1259.21 776.506 1274.87 760.499 1293.55 748.7C1301.97 743.365 1311.56 740.171 1321.5 739.399C1331.43 738.626 1341.41 740.297 1350.55 744.266C1358.55 748.038 1365.5 753.699 1370.82 760.761C1376.14 767.823 1379.66 776.073 1381.08 784.8C1381.58 787.903 1382.03 791.133 1382.41 793.666H1388.74C1390.91 793.641 1393.06 794.047 1395.08 794.86C1397.09 795.673 1398.92 796.877 1400.46 798.403C1402.01 799.929 1403.23 801.746 1404.07 803.748C1404.9 805.751 1405.33 807.899 1405.33 810.07V864.22C1405.33 865.664 1404.76 867.05 1403.74 868.071C1402.72 869.092 1401.33 869.666 1399.89 869.666H1388.93V867.196C1388.95 861.332 1387.55 855.55 1384.86 850.339C1382.17 845.127 1378.27 840.64 1373.48 837.255C1368.69 833.87 1363.16 831.687 1357.35 830.891C1351.54 830.094 1345.62 830.708 1340.1 832.68L1346.43 839.013C1351.49 838.083 1356.71 838.52 1361.54 840.279C1366.37 842.038 1370.64 845.056 1373.92 849.02C1375.61 850.714 1376.96 852.713 1377.91 854.91C1379.86 858.681 1380.94 862.84 1381.08 867.082C1381.21 871.325 1380.4 875.544 1378.69 879.432C1376.99 883.32 1374.44 886.778 1371.23 889.554C1368.02 892.33 1364.23 894.354 1360.13 895.477C1356.04 896.601 1351.75 896.796 1347.57 896.048C1343.39 895.3 1339.43 893.628 1335.98 891.154C1332.53 888.68 1329.68 885.467 1327.63 881.75C1325.58 878.032 1324.39 873.904 1324.14 869.666H1289.43V867.196C1289.45 861.34 1288.05 855.566 1285.37 850.361C1282.68 845.157 1278.78 840.674 1274 837.29C1269.22 833.907 1263.7 831.722 1257.9 830.919C1252.1 830.117 1246.19 830.721 1240.67 832.68L1247 839.013C1252.06 838.083 1257.27 838.52 1262.1 840.279C1266.94 842.038 1271.21 845.056 1274.49 849.02C1276.18 850.714 1277.53 852.713 1278.48 854.91C1280.4 858.68 1281.46 862.832 1281.57 867.062C1281.69 871.293 1280.87 875.497 1279.16 879.368C1277.45 883.24 1274.9 886.682 1271.69 889.444C1268.48 892.207 1264.7 894.221 1260.62 895.34C1256.54 896.459 1252.26 896.654 1248.09 895.913C1243.93 895.171 1239.98 893.511 1236.53 891.052C1233.09 888.594 1230.23 885.399 1228.18 881.7C1226.12 878.001 1224.91 873.89 1224.64 869.666H1208.11C1206.67 869.666 1205.28 869.092 1204.26 868.071C1203.24 867.05 1202.67 865.664 1202.67 864.22V852.946C1202.71 839.701 1207.18 826.851 1215.36 816.433C1223.54 806.016 1234.97 798.628 1247.82 795.44V795.44ZM1342 793.666H1367.33C1367.33 791.45 1366.7 789.17 1366.32 786.89C1365.26 779.966 1362.45 773.426 1358.16 767.887C1353.87 762.347 1348.25 757.989 1341.81 755.223L1342 793.666ZM1352.39 884.613C1355.52 884.613 1358.58 883.684 1361.18 881.945C1363.79 880.205 1365.82 877.732 1367.01 874.839C1368.21 871.946 1368.53 868.762 1367.92 865.691C1367.3 862.619 1365.8 859.798 1363.58 857.584C1361.37 855.369 1358.55 853.862 1355.48 853.251C1352.4 852.64 1349.22 852.953 1346.33 854.152C1343.43 855.35 1340.96 857.379 1339.22 859.983C1337.48 862.587 1336.55 865.648 1336.55 868.78C1336.55 872.979 1338.22 877.006 1341.19 879.976C1344.16 882.945 1348.19 884.613 1352.39 884.613V884.613ZM1297.67 825.333H1316.67V812.666H1297.67V825.333ZM1335.67 793.666V752.31C1323.77 750.69 1311.67 753.265 1301.47 759.593C1287.44 768.409 1275.37 780.006 1266 793.666H1335.67ZM1252.95 884.613C1256.09 884.613 1259.15 883.684 1261.75 881.945C1264.35 880.205 1266.38 877.732 1267.58 874.839C1268.78 871.946 1269.09 868.762 1268.48 865.691C1267.87 862.619 1266.36 859.798 1264.15 857.584C1261.94 855.369 1259.11 853.862 1256.04 853.251C1252.97 852.64 1249.79 852.953 1246.89 854.152C1244 855.35 1241.53 857.379 1239.79 859.983C1238.05 862.587 1237.12 865.648 1237.12 868.78C1237.12 872.979 1238.79 877.006 1241.76 879.976C1244.73 882.945 1248.75 884.613 1252.95 884.613V884.613Z" fill="#DAE1EC"/>
<path d="M1562.28 887.677C1561.87 884.693 1560.89 881.578 1559.6 878.784C1559.26 878.407 1558.94 877.984 1558.66 877.496C1557.07 874.749 1558.79 877.067 1559.38 878.31C1559.46 878.467 1559.53 878.625 1559.6 878.784C1561.35 880.695 1563.76 881.378 1565.35 882.971C1565.45 883.065 1565.51 883.198 1565.54 883.351C1565.53 882.521 1565.52 881.581 1565.49 881.07C1565.25 877.248 1563.09 873.936 1563.09 870.301C1563.09 868.424 1564.55 873.765 1565.35 875.46C1566.47 877.805 1567.22 880.262 1567.8 882.79C1567.91 883.268 1567.97 883.646 1568.01 883.909C1567.99 883.627 1567.98 883.199 1567.98 882.609V874.012C1567.98 870.843 1569.61 861.476 1569.61 864.645C1569.61 868.307 1571.24 871.926 1571.24 875.867C1571.24 877.251 1570.3 884.058 1571.42 885.052C1572.45 885.967 1574.31 879.751 1574.58 879.125C1575.04 878.099 1578.57 877.21 1578.57 877.903V883.785C1578.57 884.532 1579.04 888.23 1578.07 888.446C1575.4 889.039 1572.37 888.197 1569.65 888.536C1566.3 888.955 1558.71 893.616 1562.28 887.677Z" fill="#DAE1EC"/>
<path d="M1562.28 887.677C1561.85 884.524 1560.77 881.223 1559.38 878.31C1558.79 877.067 1557.07 874.749 1558.66 877.496C1560.37 880.461 1563.45 881.064 1565.35 882.971C1565.72 883.335 1565.54 884.276 1565.54 884.736C1565.54 885.957 1565.57 882.29 1565.49 881.07C1565.25 877.248 1563.09 873.936 1563.09 870.301C1563.09 868.424 1564.55 873.765 1565.35 875.46C1566.47 877.805 1567.22 880.262 1567.8 882.79C1568.24 884.727 1567.98 885.034 1567.98 882.609C1567.98 879.743 1567.98 876.877 1567.98 874.012C1567.98 870.843 1569.61 861.476 1569.61 864.645C1569.61 868.307 1571.24 871.926 1571.24 875.867C1571.24 877.251 1570.3 884.058 1571.42 885.052C1572.45 885.967 1574.31 879.751 1574.58 879.125C1575.04 878.099 1578.57 877.21 1578.57 877.903C1578.57 879.864 1578.57 881.825 1578.57 883.785C1578.57 884.532 1579.04 888.23 1578.07 888.446C1575.4 889.039 1572.37 888.197 1569.65 888.536C1566.3 888.955 1558.71 893.616 1562.28 887.677Z" stroke="#DAE1EC" stroke-width="3" stroke-linecap="round"/>
<path d="M856.161 873.815C854.935 879.244 853.228 884.609 851.711 889.961C855.081 892.207 865.132 893.836 869.149 893.836C871.976 893.836 874.608 895.238 877.258 895.127C878.75 895.065 877.545 889.903 877.545 888.382C877.545 885.86 878.826 871.234 875.607 871.949C871.239 872.92 872.772 882.829 872.306 886.086C871.653 890.659 869.795 887.455 869.795 884.794V878.049C869.795 871.916 867.211 866.469 867.211 860.324V864.63C867.211 870.214 866.868 876.808 865.633 882.211C864.676 886.396 863.57 880.027 863.049 878.623C862.247 876.457 860.853 874.617 860.107 872.38C859.966 871.957 857.979 864.983 857.165 865.706C856.078 866.672 856.491 872.353 856.161 873.815Z" fill="#DAE1EC"/>
<path d="M1608.45 873.355C1607.22 878.785 1605.52 884.149 1604 889.501C1607.37 891.748 1617.42 893.376 1621.44 893.376C1624.26 893.376 1626.9 894.778 1629.55 894.668C1631.04 894.606 1629.83 889.444 1629.83 887.922C1629.83 885.4 1631.11 870.774 1627.9 871.49C1623.53 872.46 1625.06 882.369 1624.59 885.626C1623.94 890.2 1622.08 886.995 1622.08 884.334V877.589C1622.08 871.456 1619.5 866.01 1619.5 859.865V864.17C1619.5 869.754 1619.16 876.348 1617.92 881.751C1616.96 885.937 1615.86 879.568 1615.34 878.163C1614.54 875.997 1613.14 874.158 1612.4 871.92C1612.25 871.498 1610.27 864.523 1609.45 865.247C1608.37 866.213 1608.78 871.894 1608.45 873.355Z" fill="#DAE1EC"/>
<path d="M1125.45 873.355C1124.22 878.785 1122.52 884.149 1121 889.501C1124.37 891.748 1134.42 893.376 1138.44 893.376C1141.26 893.376 1143.9 894.778 1146.55 894.668C1148.04 894.606 1146.83 889.444 1146.83 887.922C1146.83 885.4 1148.11 870.774 1144.9 871.49C1140.53 872.46 1142.06 882.369 1141.59 885.626C1140.94 890.2 1139.08 886.995 1139.08 884.334V877.589C1139.08 871.456 1136.5 866.01 1136.5 859.865V864.17C1136.5 869.754 1136.16 876.348 1134.92 881.751C1133.96 885.937 1132.86 879.568 1132.34 878.163C1131.54 875.997 1130.14 874.158 1129.4 871.92C1129.25 871.498 1127.27 864.523 1126.45 865.247C1125.37 866.213 1125.78 871.894 1125.45 873.355Z" fill="#DAE1EC"/>
<path d="M479.277 891.677C478.87 888.693 477.888 885.578 476.603 882.784C476.259 882.407 475.94 881.984 475.657 881.496C474.067 878.749 475.787 881.067 476.381 882.31C476.456 882.467 476.53 882.625 476.603 882.784C478.354 884.695 480.761 885.378 482.354 886.971C482.448 887.065 482.506 887.198 482.539 887.351C482.535 886.521 482.522 885.581 482.49 885.07C482.251 881.248 480.092 877.936 480.092 874.301C480.092 872.424 481.547 877.765 482.354 879.46C483.471 881.805 484.22 884.262 484.798 886.79C484.907 887.268 484.973 887.646 485.011 887.909C484.994 887.627 484.979 887.199 484.979 886.609V878.012C484.979 874.843 486.607 865.476 486.607 868.645C486.607 872.307 488.236 875.926 488.236 879.867C488.236 881.251 487.299 888.058 488.417 889.052C489.446 889.967 491.306 883.751 491.585 883.125C492.041 882.099 495.567 881.21 495.567 881.903V887.785C495.567 888.532 496.042 892.23 495.069 892.446C492.398 893.039 489.372 892.197 486.653 892.536C483.302 892.955 475.714 897.616 479.277 891.677Z" fill="#DAE1EC"/>
<path d="M479.277 891.677C478.847 888.524 477.775 885.223 476.381 882.31C475.787 881.067 474.067 878.749 475.657 881.496C477.374 884.461 480.448 885.064 482.354 886.971C482.718 887.335 482.535 888.276 482.535 888.736C482.535 889.957 482.566 886.29 482.49 885.07C482.251 881.248 480.092 877.936 480.092 874.301C480.092 872.424 481.547 877.765 482.354 879.46C483.471 881.805 484.22 884.262 484.798 886.79C485.24 888.727 484.979 889.034 484.979 886.609C484.979 883.743 484.979 880.877 484.979 878.012C484.979 874.843 486.607 865.476 486.607 868.645C486.607 872.307 488.236 875.926 488.236 879.867C488.236 881.251 487.299 888.058 488.417 889.052C489.446 889.967 491.306 883.751 491.585 883.125C492.041 882.099 495.567 881.21 495.567 881.903C495.567 883.864 495.567 885.825 495.567 887.785C495.567 888.532 496.042 892.23 495.069 892.446C492.398 893.039 489.372 892.197 486.653 892.536C483.302 892.955 475.714 897.616 479.277 891.677Z" stroke="#DAE1EC" stroke-width="3" stroke-linecap="round"/>
<path d="M233.277 891.677C232.87 888.693 231.888 885.578 230.603 882.784C230.259 882.407 229.94 881.984 229.657 881.496C228.067 878.749 229.787 881.067 230.381 882.31C230.456 882.467 230.53 882.625 230.603 882.784C232.354 884.695 234.761 885.378 236.354 886.971C236.448 887.065 236.506 887.198 236.539 887.351C236.535 886.521 236.522 885.581 236.49 885.07C236.251 881.248 234.092 877.936 234.092 874.301C234.092 872.424 235.547 877.765 236.354 879.46C237.471 881.805 238.22 884.262 238.798 886.79C238.907 887.268 238.973 887.646 239.011 887.909C238.994 887.627 238.979 887.199 238.979 886.609V878.012C238.979 874.843 240.607 865.476 240.607 868.645C240.607 872.307 242.236 875.926 242.236 879.867C242.236 881.251 241.299 888.058 242.417 889.052C243.446 889.967 245.306 883.751 245.585 883.125C246.041 882.099 249.567 881.21 249.567 881.903V887.785C249.567 888.532 250.042 892.23 249.069 892.446C246.398 893.039 243.372 892.197 240.653 892.536C237.302 892.955 229.714 897.616 233.277 891.677Z" fill="#DAE1EC"/>
<path d="M233.277 891.677C232.847 888.524 231.775 885.223 230.381 882.31C229.787 881.067 228.067 878.749 229.657 881.496C231.374 884.461 234.448 885.064 236.354 886.971C236.718 887.335 236.535 888.276 236.535 888.736C236.535 889.957 236.566 886.29 236.49 885.07C236.251 881.248 234.092 877.936 234.092 874.301C234.092 872.424 235.547 877.765 236.354 879.46C237.471 881.805 238.22 884.262 238.798 886.79C239.24 888.727 238.979 889.034 238.979 886.609C238.979 883.743 238.979 880.877 238.979 878.012C238.979 874.843 240.607 865.476 240.607 868.645C240.607 872.307 242.236 875.926 242.236 879.867C242.236 881.251 241.299 888.058 242.417 889.052C243.446 889.967 245.306 883.751 245.585 883.125C246.041 882.099 249.567 881.21 249.567 881.903C249.567 883.864 249.567 885.825 249.567 887.785C249.567 888.532 250.042 892.23 249.069 892.446C246.398 893.039 243.372 892.197 240.653 892.536C237.302 892.955 229.714 897.616 233.277 891.677Z" stroke="#DAE1EC" stroke-width="3" stroke-linecap="round"/>
<path d="M788.254 417.8H759.154L754.154 432H742.254L767.154 362.4H780.354L805.254 432H793.254L788.254 417.8ZM785.054 408.5L773.754 376.2L762.354 408.5H785.054ZM827.48 358V432H816.08V358H827.48ZM853.847 358V432H842.447V358H853.847ZM900.591 369.6C898.524 369.6 896.791 368.9 895.391 367.5C893.991 366.1 893.291 364.367 893.291 362.3C893.291 360.233 893.991 358.5 895.391 357.1C896.791 355.7 898.524 355 900.591 355C902.591 355 904.291 355.7 905.691 357.1C907.091 358.5 907.791 360.233 907.791 362.3C907.791 364.367 907.091 366.1 905.691 367.5C904.291 368.9 902.591 369.6 900.591 369.6ZM906.191 376.9V432H894.791V376.9H906.191ZM941.158 432.9C936.825 432.9 932.925 432.133 929.458 430.6C926.058 429 923.358 426.867 921.358 424.2C919.358 421.467 918.292 418.433 918.158 415.1H929.958C930.158 417.433 931.258 419.4 933.258 421C935.325 422.533 937.892 423.3 940.958 423.3C944.158 423.3 946.625 422.7 948.358 421.5C950.158 420.233 951.058 418.633 951.058 416.7C951.058 414.633 950.058 413.1 948.058 412.1C946.125 411.1 943.025 410 938.758 408.8C934.625 407.667 931.258 406.567 928.658 405.5C926.058 404.433 923.792 402.8 921.858 400.6C919.992 398.4 919.058 395.5 919.058 391.9C919.058 388.967 919.925 386.3 921.658 383.9C923.392 381.433 925.858 379.5 929.058 378.1C932.325 376.7 936.058 376 940.258 376C946.525 376 951.558 377.6 955.358 380.8C959.225 383.933 961.292 388.233 961.558 393.7H950.158C949.958 391.233 948.958 389.267 947.158 387.8C945.358 386.333 942.925 385.6 939.858 385.6C936.858 385.6 934.558 386.167 932.958 387.3C931.358 388.433 930.558 389.933 930.558 391.8C930.558 393.267 931.092 394.5 932.158 395.5C933.225 396.5 934.525 397.3 936.058 397.9C937.592 398.433 939.858 399.133 942.858 400C946.858 401.067 950.125 402.167 952.658 403.3C955.258 404.367 957.492 405.967 959.358 408.1C961.225 410.233 962.192 413.067 962.258 416.6C962.258 419.733 961.392 422.533 959.658 425C957.925 427.467 955.458 429.4 952.258 430.8C949.125 432.2 945.425 432.9 941.158 432.9ZM1074.55 376.9L1057.45 432H1045.45L1034.35 391.3L1023.25 432H1011.25L994.053 376.9H1005.65L1017.15 421.2L1028.85 376.9H1040.75L1051.95 421L1063.35 376.9H1074.55ZM1133.57 403.1C1133.57 405.167 1133.44 407.033 1133.17 408.7H1091.07C1091.41 413.1 1093.04 416.633 1095.97 419.3C1098.91 421.967 1102.51 423.3 1106.77 423.3C1112.91 423.3 1117.24 420.733 1119.77 415.6H1132.07C1130.41 420.667 1127.37 424.833 1122.97 428.1C1118.64 431.3 1113.24 432.9 1106.77 432.9C1101.51 432.9 1096.77 431.733 1092.57 429.4C1088.44 427 1085.17 423.667 1082.77 419.4C1080.44 415.067 1079.27 410.067 1079.27 404.4C1079.27 398.733 1080.41 393.767 1082.67 389.5C1085.01 385.167 1088.24 381.833 1092.37 379.5C1096.57 377.167 1101.37 376 1106.77 376C1111.97 376 1116.61 377.133 1120.67 379.4C1124.74 381.667 1127.91 384.867 1130.17 389C1132.44 393.067 1133.57 397.767 1133.57 403.1ZM1121.67 399.5C1121.61 395.3 1120.11 391.933 1117.17 389.4C1114.24 386.867 1110.61 385.6 1106.27 385.6C1102.34 385.6 1098.97 386.867 1096.17 389.4C1093.37 391.867 1091.71 395.233 1091.17 399.5H1121.67ZM1156.19 358V432H1144.79V358H1156.19ZM1182.56 358V432H1171.16V358H1182.56ZM1202.13 432.7C1200.06 432.7 1198.33 432 1196.93 430.6C1195.53 429.2 1194.83 427.467 1194.83 425.4C1194.83 423.333 1195.53 421.6 1196.93 420.2C1198.33 418.8 1200.06 418.1 1202.13 418.1C1204.13 418.1 1205.83 418.8 1207.23 420.2C1208.63 421.6 1209.33 423.333 1209.33 425.4C1209.33 427.467 1208.63 429.2 1207.23 430.6C1205.83 432 1204.13 432.7 1202.13 432.7Z" fill="#2E3B52"/>
<path d="M720.096 473.09V475.31H714.396V494H711.666V475.31H705.936V473.09H720.096ZM731.616 477.26C732.856 477.26 733.976 477.53 734.976 478.07C735.976 478.59 736.756 479.38 737.316 480.44C737.896 481.5 738.186 482.79 738.186 484.31V494H735.486V484.7C735.486 483.06 735.076 481.81 734.256 480.95C733.436 480.07 732.316 479.63 730.896 479.63C729.456 479.63 728.306 480.08 727.446 480.98C726.606 481.88 726.186 483.19 726.186 484.91V494H723.456V471.8H726.186V479.9C726.726 479.06 727.466 478.41 728.406 477.95C729.366 477.49 730.436 477.26 731.616 477.26ZM757.646 485.15C757.646 485.67 757.616 486.22 757.556 486.8H744.416C744.516 488.42 745.066 489.69 746.066 490.61C747.086 491.51 748.316 491.96 749.756 491.96C750.936 491.96 751.916 491.69 752.696 491.15C753.496 490.59 754.056 489.85 754.376 488.93H757.316C756.876 490.51 755.996 491.8 754.676 492.8C753.356 493.78 751.716 494.27 749.756 494.27C748.196 494.27 746.796 493.92 745.556 493.22C744.336 492.52 743.376 491.53 742.676 490.25C741.976 488.95 741.626 487.45 741.626 485.75C741.626 484.05 741.966 482.56 742.646 481.28C743.326 480 744.276 479.02 745.496 478.34C746.736 477.64 748.156 477.29 749.756 477.29C751.316 477.29 752.696 477.63 753.896 478.31C755.096 478.99 756.016 479.93 756.656 481.13C757.316 482.31 757.646 483.65 757.646 485.15ZM754.826 484.58C754.826 483.54 754.596 482.65 754.136 481.91C753.676 481.15 753.046 480.58 752.246 480.2C751.466 479.8 750.596 479.6 749.636 479.6C748.256 479.6 747.076 480.04 746.096 480.92C745.136 481.8 744.586 483.02 744.446 484.58H754.826ZM763.979 480.23C764.459 479.29 765.139 478.56 766.019 478.04C766.919 477.52 768.009 477.26 769.289 477.26V480.08H768.569C765.509 480.08 763.979 481.74 763.979 485.06V494H761.249V477.56H763.979V480.23ZM787.441 485.15C787.441 485.67 787.411 486.22 787.351 486.8H774.211C774.311 488.42 774.861 489.69 775.861 490.61C776.881 491.51 778.111 491.96 779.551 491.96C780.731 491.96 781.711 491.69 782.491 491.15C783.291 490.59 783.851 489.85 784.171 488.93H787.111C786.671 490.51 785.791 491.8 784.471 492.8C783.151 493.78 781.511 494.27 779.551 494.27C777.991 494.27 776.591 493.92 775.351 493.22C774.131 492.52 773.171 491.53 772.471 490.25C771.771 488.95 771.421 487.45 771.421 485.75C771.421 484.05 771.761 482.56 772.441 481.28C773.121 480 774.071 479.02 775.291 478.34C776.531 477.64 777.951 477.29 779.551 477.29C781.111 477.29 782.491 477.63 783.691 478.31C784.891 478.99 785.811 479.93 786.451 481.13C787.111 482.31 787.441 483.65 787.441 485.15ZM784.621 484.58C784.621 483.54 784.391 482.65 783.931 481.91C783.471 481.15 782.841 480.58 782.041 480.2C781.261 479.8 780.391 479.6 779.431 479.6C778.051 479.6 776.871 480.04 775.891 480.92C774.931 481.8 774.381 483.02 774.241 484.58H784.621ZM800.452 474.89C799.932 474.89 799.492 474.71 799.132 474.35C798.772 473.99 798.592 473.55 798.592 473.03C798.592 472.51 798.772 472.07 799.132 471.71C799.492 471.35 799.932 471.17 800.452 471.17C800.952 471.17 801.372 471.35 801.712 471.71C802.072 472.07 802.252 472.51 802.252 473.03C802.252 473.55 802.072 473.99 801.712 474.35C801.372 474.71 800.952 474.89 800.452 474.89ZM801.772 477.56V494H799.042V477.56H801.772ZM812.245 494.27C810.985 494.27 809.855 494.06 808.855 493.64C807.855 493.2 807.065 492.6 806.485 491.84C805.905 491.06 805.585 490.17 805.525 489.17H808.345C808.425 489.99 808.805 490.66 809.485 491.18C810.185 491.7 811.095 491.96 812.215 491.96C813.255 491.96 814.075 491.73 814.675 491.27C815.275 490.81 815.575 490.23 815.575 489.53C815.575 488.81 815.255 488.28 814.615 487.94C813.975 487.58 812.985 487.23 811.645 486.89C810.425 486.57 809.425 486.25 808.645 485.93C807.885 485.59 807.225 485.1 806.665 484.46C806.125 483.8 805.855 482.94 805.855 481.88C805.855 481.04 806.105 480.27 806.605 479.57C807.105 478.87 807.815 478.32 808.735 477.92C809.655 477.5 810.705 477.29 811.885 477.29C813.705 477.29 815.175 477.75 816.295 478.67C817.415 479.59 818.015 480.85 818.095 482.45H815.365C815.305 481.59 814.955 480.9 814.315 480.38C813.695 479.86 812.855 479.6 811.795 479.6C810.815 479.6 810.035 479.81 809.455 480.23C808.875 480.65 808.585 481.2 808.585 481.88C808.585 482.42 808.755 482.87 809.095 483.23C809.455 483.57 809.895 483.85 810.415 484.07C810.955 484.27 811.695 484.5 812.635 484.76C813.815 485.08 814.775 485.4 815.515 485.72C816.255 486.02 816.885 486.48 817.405 487.1C817.945 487.72 818.225 488.53 818.245 489.53C818.245 490.43 817.995 491.24 817.495 491.96C816.995 492.68 816.285 493.25 815.365 493.67C814.465 494.07 813.425 494.27 812.245 494.27ZM838.107 477.26C840.107 477.26 841.727 477.87 842.967 479.09C844.207 480.29 844.827 482.03 844.827 484.31V494H842.127V484.7C842.127 483.06 841.717 481.81 840.897 480.95C840.077 480.07 838.957 479.63 837.537 479.63C836.097 479.63 834.947 480.08 834.087 480.98C833.247 481.88 832.827 483.19 832.827 484.91V494H830.097V477.56H832.827V479.9C833.367 479.06 834.097 478.41 835.017 477.95C835.957 477.49 836.987 477.26 838.107 477.26ZM856.457 494.27C854.917 494.27 853.517 493.92 852.257 493.22C851.017 492.52 850.037 491.53 849.317 490.25C848.617 488.95 848.267 487.45 848.267 485.75C848.267 484.07 848.627 482.59 849.347 481.31C850.087 480.01 851.087 479.02 852.347 478.34C853.607 477.64 855.017 477.29 856.577 477.29C858.137 477.29 859.547 477.64 860.807 478.34C862.067 479.02 863.057 480 863.777 481.28C864.517 482.56 864.887 484.05 864.887 485.75C864.887 487.45 864.507 488.95 863.747 490.25C863.007 491.53 861.997 492.52 860.717 493.22C859.437 493.92 858.017 494.27 856.457 494.27ZM856.457 491.87C857.437 491.87 858.357 491.64 859.217 491.18C860.077 490.72 860.767 490.03 861.287 489.11C861.827 488.19 862.097 487.07 862.097 485.75C862.097 484.43 861.837 483.31 861.317 482.39C860.797 481.47 860.117 480.79 859.277 480.35C858.437 479.89 857.527 479.66 856.547 479.66C855.547 479.66 854.627 479.89 853.787 480.35C852.967 480.79 852.307 481.47 851.807 482.39C851.307 483.31 851.057 484.43 851.057 485.75C851.057 487.09 851.297 488.22 851.777 489.14C852.277 490.06 852.937 490.75 853.757 491.21C854.577 491.65 855.477 491.87 856.457 491.87ZM875.454 485.72C875.454 484.04 875.794 482.57 876.474 481.31C877.154 480.03 878.084 479.04 879.264 478.34C880.464 477.64 881.794 477.29 883.254 477.29C884.694 477.29 885.944 477.6 887.004 478.22C888.064 478.84 888.854 479.62 889.374 480.56V477.56H892.134V494H889.374V490.94C888.834 491.9 888.024 492.7 886.944 493.34C885.884 493.96 884.644 494.27 883.224 494.27C881.764 494.27 880.444 493.91 879.264 493.19C878.084 492.47 877.154 491.46 876.474 490.16C875.794 488.86 875.454 487.38 875.454 485.72ZM889.374 485.75C889.374 484.51 889.124 483.43 888.624 482.51C888.124 481.59 887.444 480.89 886.584 480.41C885.744 479.91 884.814 479.66 883.794 479.66C882.774 479.66 881.844 479.9 881.004 480.38C880.164 480.86 879.494 481.56 878.994 482.48C878.494 483.4 878.244 484.48 878.244 485.72C878.244 486.98 878.494 488.08 878.994 489.02C879.494 489.94 880.164 490.65 881.004 491.15C881.844 491.63 882.774 491.87 883.794 491.87C884.814 491.87 885.744 491.63 886.584 491.15C887.444 490.65 888.124 489.94 888.624 489.02C889.124 488.08 889.374 486.99 889.374 485.75ZM895.728 485.75C895.728 484.05 896.068 482.57 896.748 481.31C897.428 480.03 898.368 479.04 899.568 478.34C900.788 477.64 902.178 477.29 903.738 477.29C905.758 477.29 907.418 477.78 908.718 478.76C910.038 479.74 910.908 481.1 911.328 482.84H908.388C908.108 481.84 907.558 481.05 906.738 480.47C905.938 479.89 904.938 479.6 903.738 479.6C902.178 479.6 900.918 480.14 899.958 481.22C898.998 482.28 898.518 483.79 898.518 485.75C898.518 487.73 898.998 489.26 899.958 490.34C900.918 491.42 902.178 491.96 903.738 491.96C904.938 491.96 905.938 491.68 906.738 491.12C907.538 490.56 908.088 489.76 908.388 488.72H911.328C910.888 490.4 910.008 491.75 908.688 492.77C907.368 493.77 905.718 494.27 903.738 494.27C902.178 494.27 900.788 493.92 899.568 493.22C898.368 492.52 897.428 491.53 896.748 490.25C896.068 488.97 895.728 487.47 895.728 485.75ZM918.3 479.81V489.5C918.3 490.3 918.47 490.87 918.81 491.21C919.15 491.53 919.74 491.69 920.58 491.69H922.59V494H920.13C918.61 494 917.47 493.65 916.71 492.95C915.95 492.25 915.57 491.1 915.57 489.5V479.81H913.44V477.56H915.57V473.42H918.3V477.56H922.59V479.81H918.3ZM927.308 474.89C926.788 474.89 926.348 474.71 925.988 474.35C925.628 473.99 925.448 473.55 925.448 473.03C925.448 472.51 925.628 472.07 925.988 471.71C926.348 471.35 926.788 471.17 927.308 471.17C927.808 471.17 928.228 471.35 928.568 471.71C928.928 472.07 929.108 472.51 929.108 473.03C929.108 473.55 928.928 473.99 928.568 474.35C928.228 474.71 927.808 474.89 927.308 474.89ZM928.628 477.56V494H925.898V477.56H928.628ZM939.401 491.48L944.501 477.56H947.411L940.961 494H937.781L931.331 477.56H934.271L939.401 491.48ZM965.097 485.15C965.097 485.67 965.067 486.22 965.007 486.8H951.867C951.967 488.42 952.517 489.69 953.517 490.61C954.537 491.51 955.767 491.96 957.207 491.96C958.387 491.96 959.367 491.69 960.147 491.15C960.947 490.59 961.507 489.85 961.827 488.93H964.767C964.327 490.51 963.447 491.8 962.127 492.8C960.807 493.78 959.167 494.27 957.207 494.27C955.647 494.27 954.247 493.92 953.007 493.22C951.787 492.52 950.827 491.53 950.127 490.25C949.427 488.95 949.077 487.45 949.077 485.75C949.077 484.05 949.417 482.56 950.097 481.28C950.777 480 951.727 479.02 952.947 478.34C954.187 477.64 955.607 477.29 957.207 477.29C958.767 477.29 960.147 477.63 961.347 478.31C962.547 478.99 963.467 479.93 964.107 481.13C964.767 482.31 965.097 483.65 965.097 485.15ZM962.277 484.58C962.277 483.54 962.047 482.65 961.587 481.91C961.127 481.15 960.497 480.58 959.697 480.2C958.917 479.8 958.047 479.6 957.087 479.6C955.707 479.6 954.527 480.04 953.547 480.92C952.587 481.8 952.037 483.02 951.897 484.58H962.277ZM975.679 485.72C975.679 484.04 976.019 482.57 976.699 481.31C977.379 480.03 978.309 479.04 979.489 478.34C980.689 477.64 982.029 477.29 983.509 477.29C984.789 477.29 985.979 477.59 987.079 478.19C988.179 478.77 989.019 479.54 989.599 480.5V471.8H992.359V494H989.599V490.91C989.059 491.89 988.259 492.7 987.199 493.34C986.139 493.96 984.899 494.27 983.479 494.27C982.019 494.27 980.689 493.91 979.489 493.19C978.309 492.47 977.379 491.46 976.699 490.16C976.019 488.86 975.679 487.38 975.679 485.72ZM989.599 485.75C989.599 484.51 989.349 483.43 988.849 482.51C988.349 481.59 987.669 480.89 986.809 480.41C985.969 479.91 985.039 479.66 984.019 479.66C982.999 479.66 982.069 479.9 981.229 480.38C980.389 480.86 979.719 481.56 979.219 482.48C978.719 483.4 978.469 484.48 978.469 485.72C978.469 486.98 978.719 488.08 979.219 489.02C979.719 489.94 980.389 490.65 981.229 491.15C982.069 491.63 982.999 491.87 984.019 491.87C985.039 491.87 985.969 491.63 986.809 491.15C987.669 490.65 988.349 489.94 988.849 489.02C989.349 488.08 989.599 486.99 989.599 485.75ZM998.382 474.89C997.862 474.89 997.422 474.71 997.062 474.35C996.702 473.99 996.522 473.55 996.522 473.03C996.522 472.51 996.702 472.07 997.062 471.71C997.422 471.35 997.862 471.17 998.382 471.17C998.882 471.17 999.302 471.35 999.642 471.71C1000 472.07 1000.18 472.51 1000.18 473.03C1000.18 473.55 1000 473.99 999.642 474.35C999.302 474.71 998.882 474.89 998.382 474.89ZM999.702 477.56V494H996.972V477.56H999.702ZM1010.17 494.27C1008.91 494.27 1007.78 494.06 1006.78 493.64C1005.78 493.2 1004.99 492.6 1004.41 491.84C1003.83 491.06 1003.51 490.17 1003.45 489.17H1006.27C1006.35 489.99 1006.73 490.66 1007.41 491.18C1008.11 491.7 1009.02 491.96 1010.14 491.96C1011.18 491.96 1012 491.73 1012.6 491.27C1013.2 490.81 1013.5 490.23 1013.5 489.53C1013.5 488.81 1013.18 488.28 1012.54 487.94C1011.9 487.58 1010.91 487.23 1009.57 486.89C1008.35 486.57 1007.35 486.25 1006.57 485.93C1005.81 485.59 1005.15 485.1 1004.59 484.46C1004.05 483.8 1003.78 482.94 1003.78 481.88C1003.78 481.04 1004.03 480.27 1004.53 479.57C1005.03 478.87 1005.74 478.32 1006.66 477.92C1007.58 477.5 1008.63 477.29 1009.81 477.29C1011.63 477.29 1013.1 477.75 1014.22 478.67C1015.34 479.59 1015.94 480.85 1016.02 482.45H1013.29C1013.23 481.59 1012.88 480.9 1012.24 480.38C1011.62 479.86 1010.78 479.6 1009.72 479.6C1008.74 479.6 1007.96 479.81 1007.38 480.23C1006.8 480.65 1006.51 481.2 1006.51 481.88C1006.51 482.42 1006.68 482.87 1007.02 483.23C1007.38 483.57 1007.82 483.85 1008.34 484.07C1008.88 484.27 1009.62 484.5 1010.56 484.76C1011.74 485.08 1012.7 485.4 1013.44 485.72C1014.18 486.02 1014.81 486.48 1015.33 487.1C1015.87 487.72 1016.15 488.53 1016.17 489.53C1016.17 490.43 1015.92 491.24 1015.42 491.96C1014.92 492.68 1014.21 493.25 1013.29 493.67C1012.39 494.07 1011.35 494.27 1010.17 494.27ZM1019.01 485.72C1019.01 484.04 1019.35 482.57 1020.03 481.31C1020.71 480.03 1021.64 479.04 1022.82 478.34C1024.02 477.64 1025.35 477.29 1026.81 477.29C1028.25 477.29 1029.5 477.6 1030.56 478.22C1031.62 478.84 1032.41 479.62 1032.93 480.56V477.56H1035.69V494H1032.93V490.94C1032.39 491.9 1031.58 492.7 1030.5 493.34C1029.44 493.96 1028.2 494.27 1026.78 494.27C1025.32 494.27 1024 493.91 1022.82 493.19C1021.64 492.47 1020.71 491.46 1020.03 490.16C1019.35 488.86 1019.01 487.38 1019.01 485.72ZM1032.93 485.75C1032.93 484.51 1032.68 483.43 1032.18 482.51C1031.68 481.59 1031 480.89 1030.14 480.41C1029.3 479.91 1028.37 479.66 1027.35 479.66C1026.33 479.66 1025.4 479.9 1024.56 480.38C1023.72 480.86 1023.05 481.56 1022.55 482.48C1022.05 483.4 1021.8 484.48 1021.8 485.72C1021.8 486.98 1022.05 488.08 1022.55 489.02C1023.05 489.94 1023.72 490.65 1024.56 491.15C1025.4 491.63 1026.33 491.87 1027.35 491.87C1028.37 491.87 1029.3 491.63 1030.14 491.15C1031 490.65 1031.68 489.94 1032.18 489.02C1032.68 488.08 1032.93 486.99 1032.93 485.75ZM1046.12 494.27C1044.86 494.27 1043.73 494.06 1042.73 493.64C1041.73 493.2 1040.94 492.6 1040.36 491.84C1039.78 491.06 1039.46 490.17 1039.4 489.17H1042.22C1042.3 489.99 1042.68 490.66 1043.36 491.18C1044.06 491.7 1044.97 491.96 1046.09 491.96C1047.13 491.96 1047.95 491.73 1048.55 491.27C1049.15 490.81 1049.45 490.23 1049.45 489.53C1049.45 488.81 1049.13 488.28 1048.49 487.94C1047.85 487.58 1046.86 487.23 1045.52 486.89C1044.3 486.57 1043.3 486.25 1042.52 485.93C1041.76 485.59 1041.1 485.1 1040.54 484.46C1040 483.8 1039.73 482.94 1039.73 481.88C1039.73 481.04 1039.98 480.27 1040.48 479.57C1040.98 478.87 1041.69 478.32 1042.61 477.92C1043.53 477.5 1044.58 477.29 1045.76 477.29C1047.58 477.29 1049.05 477.75 1050.17 478.67C1051.29 479.59 1051.89 480.85 1051.97 482.45H1049.24C1049.18 481.59 1048.83 480.9 1048.19 480.38C1047.57 479.86 1046.73 479.6 1045.67 479.6C1044.69 479.6 1043.91 479.81 1043.33 480.23C1042.75 480.65 1042.46 481.2 1042.46 481.88C1042.46 482.42 1042.63 482.87 1042.97 483.23C1043.33 483.57 1043.77 483.85 1044.29 484.07C1044.83 484.27 1045.57 484.5 1046.51 484.76C1047.69 485.08 1048.65 485.4 1049.39 485.72C1050.13 486.02 1050.76 486.48 1051.28 487.1C1051.82 487.72 1052.1 488.53 1052.12 489.53C1052.12 490.43 1051.87 491.24 1051.37 491.96C1050.87 492.68 1050.16 493.25 1049.24 493.67C1048.34 494.07 1047.3 494.27 1046.12 494.27ZM1059.31 479.81V489.5C1059.31 490.3 1059.48 490.87 1059.82 491.21C1060.16 491.53 1060.75 491.69 1061.59 491.69H1063.6V494H1061.14C1059.62 494 1058.48 493.65 1057.72 492.95C1056.96 492.25 1056.58 491.1 1056.58 489.5V479.81H1054.45V477.56H1056.58V473.42H1059.31V477.56H1063.6V479.81H1059.31ZM1081.9 485.15C1081.9 485.67 1081.87 486.22 1081.81 486.8H1068.67C1068.77 488.42 1069.32 489.69 1070.32 490.61C1071.34 491.51 1072.57 491.96 1074.01 491.96C1075.19 491.96 1076.17 491.69 1076.95 491.15C1077.75 490.59 1078.31 489.85 1078.63 488.93H1081.57C1081.13 490.51 1080.25 491.8 1078.93 492.8C1077.61 493.78 1075.97 494.27 1074.01 494.27C1072.45 494.27 1071.05 493.92 1069.81 493.22C1068.59 492.52 1067.63 491.53 1066.93 490.25C1066.23 488.95 1065.88 487.45 1065.88 485.75C1065.88 484.05 1066.22 482.56 1066.9 481.28C1067.58 480 1068.53 479.02 1069.75 478.34C1070.99 477.64 1072.41 477.29 1074.01 477.29C1075.57 477.29 1076.95 477.63 1078.15 478.31C1079.35 478.99 1080.27 479.93 1080.91 481.13C1081.57 482.31 1081.9 483.65 1081.9 485.15ZM1079.08 484.58C1079.08 483.54 1078.85 482.65 1078.39 481.91C1077.93 481.15 1077.3 480.58 1076.5 480.2C1075.72 479.8 1074.85 479.6 1073.89 479.6C1072.51 479.6 1071.33 480.04 1070.35 480.92C1069.39 481.8 1068.84 483.02 1068.7 484.58H1079.08ZM1088.24 480.23C1088.72 479.29 1089.4 478.56 1090.28 478.04C1091.18 477.52 1092.27 477.26 1093.55 477.26V480.08H1092.83C1089.77 480.08 1088.24 481.74 1088.24 485.06V494H1085.51V477.56H1088.24V480.23ZM1107.43 480.23C1107.91 479.29 1108.59 478.56 1109.47 478.04C1110.37 477.52 1111.46 477.26 1112.74 477.26V480.08H1112.02C1108.96 480.08 1107.43 481.74 1107.43 485.06V494H1104.7V477.56H1107.43V480.23ZM1130.89 485.15C1130.89 485.67 1130.86 486.22 1130.8 486.8H1117.66C1117.76 488.42 1118.31 489.69 1119.31 490.61C1120.33 491.51 1121.56 491.96 1123 491.96C1124.18 491.96 1125.16 491.69 1125.94 491.15C1126.74 490.59 1127.3 489.85 1127.62 488.93H1130.56C1130.12 490.51 1129.24 491.8 1127.92 492.8C1126.6 493.78 1124.96 494.27 1123 494.27C1121.44 494.27 1120.04 493.92 1118.8 493.22C1117.58 492.52 1116.62 491.53 1115.92 490.25C1115.22 488.95 1114.87 487.45 1114.87 485.75C1114.87 484.05 1115.21 482.56 1115.89 481.28C1116.57 480 1117.52 479.02 1118.74 478.34C1119.98 477.64 1121.4 477.29 1123 477.29C1124.56 477.29 1125.94 477.63 1127.14 478.31C1128.34 478.99 1129.26 479.93 1129.9 481.13C1130.56 482.31 1130.89 483.65 1130.89 485.15ZM1128.07 484.58C1128.07 483.54 1127.84 482.65 1127.38 481.91C1126.92 481.15 1126.29 480.58 1125.49 480.2C1124.71 479.8 1123.84 479.6 1122.88 479.6C1121.5 479.6 1120.32 480.04 1119.34 480.92C1118.38 481.8 1117.83 483.02 1117.69 484.58H1128.07ZM1140.31 494.27C1139.05 494.27 1137.92 494.06 1136.92 493.64C1135.92 493.2 1135.13 492.6 1134.55 491.84C1133.97 491.06 1133.65 490.17 1133.59 489.17H1136.41C1136.49 489.99 1136.87 490.66 1137.55 491.18C1138.25 491.7 1139.16 491.96 1140.28 491.96C1141.32 491.96 1142.14 491.73 1142.74 491.27C1143.34 490.81 1143.64 490.23 1143.64 489.53C1143.64 488.81 1143.32 488.28 1142.68 487.94C1142.04 487.58 1141.05 487.23 1139.71 486.89C1138.49 486.57 1137.49 486.25 1136.71 485.93C1135.95 485.59 1135.29 485.1 1134.73 484.46C1134.19 483.8 1133.92 482.94 1133.92 481.88C1133.92 481.04 1134.17 480.27 1134.67 479.57C1135.17 478.87 1135.88 478.32 1136.8 477.92C1137.72 477.5 1138.77 477.29 1139.95 477.29C1141.77 477.29 1143.24 477.75 1144.36 478.67C1145.48 479.59 1146.08 480.85 1146.16 482.45H1143.43C1143.37 481.59 1143.02 480.9 1142.38 480.38C1141.76 479.86 1140.92 479.6 1139.86 479.6C1138.88 479.6 1138.1 479.81 1137.52 480.23C1136.94 480.65 1136.65 481.2 1136.65 481.88C1136.65 482.42 1136.82 482.87 1137.16 483.23C1137.52 483.57 1137.96 483.85 1138.48 484.07C1139.02 484.27 1139.76 484.5 1140.7 484.76C1141.88 485.08 1142.84 485.4 1143.58 485.72C1144.32 486.02 1144.95 486.48 1145.47 487.1C1146.01 487.72 1146.29 488.53 1146.31 489.53C1146.31 490.43 1146.06 491.24 1145.56 491.96C1145.06 492.68 1144.35 493.25 1143.43 493.67C1142.53 494.07 1141.49 494.27 1140.31 494.27ZM1152.9 480.59C1153.44 479.65 1154.24 478.87 1155.3 478.25C1156.38 477.61 1157.63 477.29 1159.05 477.29C1160.51 477.29 1161.83 477.64 1163.01 478.34C1164.21 479.04 1165.15 480.03 1165.83 481.31C1166.51 482.57 1166.85 484.04 1166.85 485.72C1166.85 487.38 1166.51 488.86 1165.83 490.16C1165.15 491.46 1164.21 492.47 1163.01 493.19C1161.83 493.91 1160.51 494.27 1159.05 494.27C1157.65 494.27 1156.41 493.96 1155.33 493.34C1154.27 492.7 1153.46 491.91 1152.9 490.97V501.8H1150.17V477.56H1152.9V480.59ZM1164.06 485.72C1164.06 484.48 1163.81 483.4 1163.31 482.48C1162.81 481.56 1162.13 480.86 1161.27 480.38C1160.43 479.9 1159.5 479.66 1158.48 479.66C1157.48 479.66 1156.55 479.91 1155.69 480.41C1154.85 480.89 1154.17 481.6 1153.65 482.54C1153.15 483.46 1152.9 484.53 1152.9 485.75C1152.9 486.99 1153.15 488.08 1153.65 489.02C1154.17 489.94 1154.85 490.65 1155.69 491.15C1156.55 491.63 1157.48 491.87 1158.48 491.87C1159.5 491.87 1160.43 491.63 1161.27 491.15C1162.13 490.65 1162.81 489.94 1163.31 489.02C1163.81 488.08 1164.06 486.98 1164.06 485.72ZM1177.61 494.27C1176.07 494.27 1174.67 493.92 1173.41 493.22C1172.17 492.52 1171.19 491.53 1170.47 490.25C1169.77 488.95 1169.42 487.45 1169.42 485.75C1169.42 484.07 1169.78 482.59 1170.5 481.31C1171.24 480.01 1172.24 479.02 1173.5 478.34C1174.76 477.64 1176.17 477.29 1177.73 477.29C1179.29 477.29 1180.7 477.64 1181.96 478.34C1183.22 479.02 1184.21 480 1184.93 481.28C1185.67 482.56 1186.04 484.05 1186.04 485.75C1186.04 487.45 1185.66 488.95 1184.9 490.25C1184.16 491.53 1183.15 492.52 1181.87 493.22C1180.59 493.92 1179.17 494.27 1177.61 494.27ZM1177.61 491.87C1178.59 491.87 1179.51 491.64 1180.37 491.18C1181.23 490.72 1181.92 490.03 1182.44 489.11C1182.98 488.19 1183.25 487.07 1183.25 485.75C1183.25 484.43 1182.99 483.31 1182.47 482.39C1181.95 481.47 1181.27 480.79 1180.43 480.35C1179.59 479.89 1178.68 479.66 1177.7 479.66C1176.7 479.66 1175.78 479.89 1174.94 480.35C1174.12 480.79 1173.46 481.47 1172.96 482.39C1172.46 483.31 1172.21 484.43 1172.21 485.75C1172.21 487.09 1172.45 488.22 1172.93 489.14C1173.43 490.06 1174.09 490.75 1174.91 491.21C1175.73 491.65 1176.63 491.87 1177.61 491.87ZM1197.64 477.26C1199.64 477.26 1201.26 477.87 1202.5 479.09C1203.74 480.29 1204.36 482.03 1204.36 484.31V494H1201.66V484.7C1201.66 483.06 1201.25 481.81 1200.43 480.95C1199.61 480.07 1198.49 479.63 1197.07 479.63C1195.63 479.63 1194.48 480.08 1193.62 480.98C1192.78 481.88 1192.36 483.19 1192.36 484.91V494H1189.63V477.56H1192.36V479.9C1192.9 479.06 1193.63 478.41 1194.55 477.95C1195.49 477.49 1196.52 477.26 1197.64 477.26ZM1214.64 494.27C1213.38 494.27 1212.25 494.06 1211.25 493.64C1210.25 493.2 1209.46 492.6 1208.88 491.84C1208.3 491.06 1207.98 490.17 1207.92 489.17H1210.74C1210.82 489.99 1211.2 490.66 1211.88 491.18C1212.58 491.7 1213.49 491.96 1214.61 491.96C1215.65 491.96 1216.47 491.73 1217.07 491.27C1217.67 490.81 1217.97 490.23 1217.97 489.53C1217.97 488.81 1217.65 488.28 1217.01 487.94C1216.37 487.58 1215.38 487.23 1214.04 486.89C1212.82 486.57 1211.82 486.25 1211.04 485.93C1210.28 485.59 1209.62 485.1 1209.06 484.46C1208.52 483.8 1208.25 482.94 1208.25 481.88C1208.25 481.04 1208.5 480.27 1209 479.57C1209.5 478.87 1210.21 478.32 1211.13 477.92C1212.05 477.5 1213.1 477.29 1214.28 477.29C1216.1 477.29 1217.57 477.75 1218.69 478.67C1219.81 479.59 1220.41 480.85 1220.49 482.45H1217.76C1217.7 481.59 1217.35 480.9 1216.71 480.38C1216.09 479.86 1215.25 479.6 1214.19 479.6C1213.21 479.6 1212.43 479.81 1211.85 480.23C1211.27 480.65 1210.98 481.2 1210.98 481.88C1210.98 482.42 1211.15 482.87 1211.49 483.23C1211.85 483.57 1212.29 483.85 1212.81 484.07C1213.35 484.27 1214.09 484.5 1215.03 484.76C1216.21 485.08 1217.17 485.4 1217.91 485.72C1218.65 486.02 1219.28 486.48 1219.8 487.1C1220.34 487.72 1220.62 488.53 1220.64 489.53C1220.64 490.43 1220.39 491.24 1219.89 491.96C1219.39 492.68 1218.68 493.25 1217.76 493.67C1216.86 494.07 1215.82 494.27 1214.64 494.27ZM1239.49 485.15C1239.49 485.67 1239.46 486.22 1239.4 486.8H1226.26C1226.36 488.42 1226.91 489.69 1227.91 490.61C1228.93 491.51 1230.16 491.96 1231.6 491.96C1232.78 491.96 1233.76 491.69 1234.54 491.15C1235.34 490.59 1235.9 489.85 1236.22 488.93H1239.16C1238.72 490.51 1237.84 491.8 1236.52 492.8C1235.2 493.78 1233.56 494.27 1231.6 494.27C1230.04 494.27 1228.64 493.92 1227.4 493.22C1226.18 492.52 1225.22 491.53 1224.52 490.25C1223.82 488.95 1223.47 487.45 1223.47 485.75C1223.47 484.05 1223.81 482.56 1224.49 481.28C1225.17 480 1226.12 479.02 1227.34 478.34C1228.58 477.64 1230 477.29 1231.6 477.29C1233.16 477.29 1234.54 477.63 1235.74 478.31C1236.94 478.99 1237.86 479.93 1238.5 481.13C1239.16 482.31 1239.49 483.65 1239.49 485.15ZM1236.67 484.58C1236.67 483.54 1236.44 482.65 1235.98 481.91C1235.52 481.15 1234.89 480.58 1234.09 480.2C1233.31 479.8 1232.44 479.6 1231.48 479.6C1230.1 479.6 1228.92 480.04 1227.94 480.92C1226.98 481.8 1226.43 483.02 1226.29 484.58H1236.67ZM1243.97 494.18C1243.45 494.18 1243.01 494 1242.65 493.64C1242.29 493.28 1242.11 492.84 1242.11 492.32C1242.11 491.8 1242.29 491.36 1242.65 491C1243.01 490.64 1243.45 490.46 1243.97 490.46C1244.47 490.46 1244.89 490.64 1245.23 491C1245.59 491.36 1245.77 491.8 1245.77 492.32C1245.77 492.84 1245.59 493.28 1245.23 493.64C1244.89 494 1244.47 494.18 1243.97 494.18Z" fill="#2E3B52"/>
</svg>
