<svg width="220" height="180" viewBox="0 0 220 180" fill="none" xmlns="http://www.w3.org/2000/svg">
<path d="M34 95.089C34 77.3621 49.2886 63.5007 66.9307 65.2325L112.513 69.7068C114.499 69.9018 116.5 69.8981 118.486 69.6957L160.958 65.3673C178.638 63.5655 194 77.4414 194 95.2127V128.576C194 146.423 178.514 160.323 160.77 158.402L118.67 153.843C116.563 153.615 114.437 153.611 112.329 153.831L67.1119 158.547C49.4084 160.393 34 146.508 34 128.708V95.089Z" stroke="#023047" stroke-width="15"/>
<circle cx="198" cy="157" r="12.5" stroke="#023047" stroke-width="15"/>
<circle cx="87" cy="38" r="17.5" stroke="#023047" stroke-width="15"/>
<circle cx="41" cy="23" r="12.5" stroke="#023047" stroke-width="15"/>
<circle cx="19" cy="53" r="7.5" stroke="#023047" stroke-width="15"/>
</svg>
