<svg width="189" height="180" viewBox="0 0 189 180" fill="none" xmlns="http://www.w3.org/2000/svg">
<path d="M28.0766 43.5331C29.1263 40.5194 31.9681 38.5 35.1593 38.5H152.582C155.714 38.5 158.516 40.4464 159.61 43.3814L178.028 92.8137C178.34 93.6514 178.5 94.5383 178.5 95.4323V165C178.5 169.142 175.142 172.5 171 172.5H18C13.8579 172.5 10.5 169.142 10.5 165V95.2661C10.5 94.4262 10.6411 93.5923 10.9173 92.7992L28.0766 43.5331Z" stroke="#023047" stroke-width="15"/>
<rect x="50.5" y="7.5" width="85" height="31" rx="7.5" stroke="#023047" stroke-width="15"/>
<line x1="94.5" y1="83.5" x2="94.5" y2="138.5" stroke="#023047" stroke-width="15" stroke-linecap="round"/>
<line x1="122.5" y1="111.5" x2="67.5" y2="111.5" stroke="#023047" stroke-width="15" stroke-linecap="round"/>
</svg>
